# Blender v2.83.2 OBJ File: 'andana.blend'
# www.blender.org
o Text.001
v 3.682274 3.965663 -20.179867
v 4.058820 3.950866 -20.103487
v 4.060586 1.786094 -20.531576
v 5.949739 3.876559 -19.719929
v 6.268984 3.864014 -19.655172
v 6.271266 1.067851 -20.208122
v 5.894720 1.082648 -20.284502
v 5.892963 3.235119 -19.858845
v 4.028358 1.155989 -20.663078
v 3.684555 1.169500 -20.732817
v 3.513145 3.806729 -19.376863
v 3.889692 3.791932 -19.300484
v 3.891458 1.627160 -19.728575
v 5.780610 3.717625 -18.916927
v 6.099856 3.705080 -18.852171
v 6.102143 0.908921 -19.405144
v 5.725592 0.923714 -19.481499
v 5.723840 3.076190 -19.055866
v 3.859230 0.997055 -19.860075
v 3.515427 1.010566 -19.929813
vt 0.555556 0.000000
vt 0.333333 0.000000
vt 0.444444 0.000000
vt 0.777778 0.000000
vt 0.222222 0.000000
vt 0.000000 0.000000
vt 0.111111 0.000000
vt 1.000000 0.000000
vt 0.666667 0.000000
vt 0.888889 0.000000
vt 0.555556 0.000000
vt 0.444444 0.000000
vt 0.333333 0.000000
vt 0.777778 0.000000
vt 0.222222 0.000000
vt 0.111111 0.000000
vt 0.000000 0.000000
vt 1.000000 0.000000
vt 0.666667 0.000000
vt 0.888889 0.000000
vn 0.2023 0.1901 -0.9607
vn -0.2023 -0.1902 0.9607
vn -0.2025 -0.1902 0.9606
vn -0.2023 -0.1901 0.9607
vn 0.9793 -0.0385 0.1986
vn -0.0008 0.9810 0.1940
vn -0.7375 0.6750 -0.0217
vn -0.9793 0.0385 -0.1986
vn 0.0008 -0.9810 -0.1940
vn 0.7399 -0.6723 0.0228
s off
f 6/1/1 4/2/1 5/3/1
f 6/1/1 8/4/1 4/2/1
f 8/4/1 3/5/1 4/2/1
f 3/5/1 1/6/1 2/7/1
f 3/5/1 10/8/1 1/6/1
f 6/1/1 7/9/1 8/4/1
f 9/10/1 3/5/1 8/4/1
f 9/10/1 10/8/1 3/5/1
f 16/11/2 15/12/2 14/13/2
f 16/11/3 14/13/3 18/14/3
f 18/14/2 14/13/2 13/15/2
f 13/15/4 12/16/4 11/17/4
f 13/15/4 11/17/4 20/18/4
f 16/11/4 18/14/4 17/19/4
f 19/20/4 18/14/4 13/15/4
f 19/20/4 13/15/4 20/18/4
f 6/1/5 5/3/5 15/12/5 16/11/5
f 5/3/6 4/2/6 14/13/6 15/12/6
f 4/2/7 3/5/7 13/15/7 14/13/7
f 3/5/5 2/7/5 12/16/5 13/15/5
f 2/7/6 1/6/6 11/17/6 12/16/6
f 1/6/8 10/8/8 20/18/8 11/17/8
f 7/9/9 6/1/9 16/11/9 17/19/9
f 8/4/8 7/9/8 17/19/8 18/14/8
f 9/10/10 8/4/10 18/14/10 19/20/10
f 10/8/9 9/10/9 19/20/9 20/18/9
